<?xml version="1.0" encoding="UTF-8" standalone="no"?>
<svg
   data-v-fde0c5aa=""
   viewBox="0 0 300 300"
   class="iconAbove"
   version="1.1"
   id="svg5"
   sodipodi:docname="henyo_u_logo.svg"
   inkscape:version="1.3 (0e150ed, 2023-07-21)"
   xmlns:inkscape="http://www.inkscape.org/namespaces/inkscape"
   xmlns:sodipodi="http://sodipodi.sourceforge.net/DTD/sodipodi-0.dtd"
   xmlns="http://www.w3.org/2000/svg"
   xmlns:svg="http://www.w3.org/2000/svg">
  <sodipodi:namedview
     id="namedview5"
     pagecolor="#ffffff"
     bordercolor="#000000"
     borderopacity="0.25"
     inkscape:showpageshadow="2"
     inkscape:pageopacity="0.0"
     inkscape:pagecheckerboard="0"
     inkscape:deskcolor="#d1d1d1"
     inkscape:zoom="3.0633333"
     inkscape:cx="150"
     inkscape:cy="150"
     inkscape:window-width="1344"
     inkscape:window-height="1212"
     inkscape:window-x="1132"
     inkscape:window-y="164"
     inkscape:window-maximized="0"
     inkscape:current-layer="svg5" />
  <!---->
  <defs
     data-v-fde0c5aa=""
     id="defs1">
    <!---->
  </defs>
  <rect
     data-v-fde0c5aa=""
     fill="#E9EEEE"
     x="0"
     y="0"
     width="300px"
     height="300px"
     class="logo-background-square"
     id="rect1" />
  <defs
     data-v-fde0c5aa=""
     id="defs2">
    <!---->
  </defs>
  <g
     data-v-fde0c5aa=""
     id="1d34f0bb-13f4-45ed-8d99-249503edae83"
     fill="#577293">
    <path
       d=""
       id="path2" />
  </g>
  <defs
     data-v-fde0c5aa=""
     id="defs3">
    <!---->
  </defs>
  <g
     data-v-fde0c5aa=""
     id="4dd2d96d-3c43-404f-95a5-eb999b4b5f3f"
     stroke="none"
     fill="#577299"
     transform="matrix(7.7508161,0,0,7.3819482,25.664854,31.558743)">
    <path
       d="M 21.5,15.071 A 2.989,2.989 0 0 0 20.395,12.756 2.266,2.266 0 0 0 20.785,11.5 2.292,2.292 0 0 0 19.322,9.368 1.917,1.917 0 0 0 16,8.431 1.917,1.917 0 0 0 12.678,9.368 2.292,2.292 0 0 0 11.214,11.5 2.266,2.266 0 0 0 11.605,12.757 2.985,2.985 0 0 0 12.677,17.95 1.92,1.92 0 0 0 16,19.57 1.915,1.915 0 0 0 19.323,17.95 2.998,2.998 0 0 0 21.5,15.071 Z m -6.929,4.143 a 0.929,0.929 0 0 1 0,-1.857 0.5,0.5 0 0 0 0,-1 1.916,1.916 0 0 0 -1.448,0.669 1.992,1.992 0 0 1 -0.542,-3.73 1.935,1.935 0 0 1 0.919,-0.225 0.5,0.5 0 0 0 0,-1 2.952,2.952 0 0 0 -1.025,0.203 1.275,1.275 0 0 1 0.323,-1.844 1.894,1.894 0 0 0 0.103,0.25 0.50048976,0.50048976 0 1 0 0.866,-0.502 0.929,0.929 0 1 1 1.733,-0.464 v 8.572 a 0.93,0.93 0 0 1 -0.929,0.928 z m 4.306,-2.188 a 1.916,1.916 0 0 0 -1.448,-0.67 0.5,0.5 0 0 0 0,1 0.929,0.929 0 1 1 -0.929,0.93 V 9.714 a 0.928,0.928 0 1 1 1.733,0.464 0.50023919,0.50023919 0 1 0 0.866,0.501 1.894,1.894 0 0 0 0.103,-0.25 1.275,1.275 0 0 1 0.322,1.845 2.952,2.952 0 0 0 -1.024,-0.203 0.5,0.5 0 0 0 0,1 1.939,1.939 0 0 1 0.924,0.228 1.992,1.992 0 0 1 -0.547,3.727 z"
       id="path3" />
    <path
       d="M 16,4.5 A 9.31,9.31 0 0 0 13.179,4.934 0.5,0.5 0 0 0 13.481,5.887 8.3,8.3 0 0 1 16,5.5 8.492,8.492 0 0 1 19.778,21.602 0.5,0.5 0 0 0 19.5,22.05 v 1.45 h -7 V 22.05 A 0.5,0.5 0 0 0 12.222,21.602 8.48,8.48 0 0 1 10.23,7.768 0.50034488,0.50034488 0 1 0 9.552,7.032 9.48,9.48 0 0 0 11.5,22.354 V 24 a 0.5,0.5 0 0 0 0.5,0.5 h 0.5 v 1 H 12 a 0.5,0.5 0 0 0 0,1 h 0.5 V 28 a 0.5,0.5 0 0 0 0.5,0.5 h 0.55 a 2.5,2.5 0 0 0 4.9,0 H 19 A 0.5,0.5 0 0 0 19.5,28 V 26.5 H 20 a 0.5,0.5 0 0 0 0,-1 h -0.5 v -1 H 20 A 0.5,0.5 0 0 0 20.5,24 V 22.354 A 9.492,9.492 0 0 0 16,4.5 Z m 0,25 a 1.503,1.503 0 0 1 -1.415,-1 h 2.83 A 1.503,1.503 0 0 1 16,29.5 Z m 2.5,-2 h -5 v -1 h 5 z m 0,-2 h -5 v -1 h 5 z M 16,3.5 A 0.5,0.5 0 0 1 15.5,3 V 2 a 0.5,0.5 0 0 1 1,0 V 3 A 0.5,0.5 0 0 1 16,3.5 Z m -5.5,1.474 a 0.5,0.5 0 0 1 -0.433,-0.25 l -0.5,-0.866 a 0.5,0.5 0 0 1 0.866,-0.5 l 0.5,0.866 A 0.5,0.5 0 0 1 10.5,4.974 Z M 6.473,9 A 0.497,0.497 0 0 1 6.223,8.933 l -0.865,-0.5 a 0.5,0.5 0 1 1 0.5,-0.866 l 0.866,0.5 A 0.5,0.5 0 0 1 6.474,9 Z M 5,14.5 H 4 a 0.5,0.5 0 0 1 0,-1 h 1 a 0.5,0.5 0 0 1 0,1 z m 0.608,6 a 0.5,0.5 0 0 1 -0.25,-0.933 l 0.866,-0.5 a 0.5,0.5 0 1 1 0.5,0.866 l -0.866,0.5 A 0.497,0.497 0 0 1 5.608,20.5 Z m 20.784,0 a 0.497,0.497 0 0 1 -0.25,-0.067 l -0.866,-0.5 a 0.5,0.5 0 1 1 0.5,-0.866 l 0.866,0.5 a 0.5,0.5 0 0 1 -0.25,0.933 z"
       id="path4" />
    <path
       d="m 28,14.5 h -1 a 0.5,0.5 0 0 1 0,-1 h 1 a 0.5,0.5 0 0 1 0,1 z M 25.527,9 a 0.5,0.5 0 0 1 -0.25,-0.933 l 0.865,-0.5 a 0.5,0.5 0 0 1 0.5,0.866 l -0.866,0.5 A 0.497,0.497 0 0 1 25.526,9 Z M 21.5,4.974 a 0.5,0.5 0 0 1 -0.433,-0.75 l 0.5,-0.866 a 0.5,0.5 0 0 1 0.866,0.5 l -0.5,0.866 A 0.5,0.5 0 0 1 21.5,4.974 Z"
       id="path5" />
    <circle
       cx="11.5"
       cy="6.2059999"
       r="0.5"
       id="circle5" />
  </g>
  <!---->
</svg>
